<?xml version="1.0" encoding="UTF-8" standalone="no"?>
<svg
   xmlns:dc="http://purl.org/dc/elements/1.1/"
   xmlns:cc="http://creativecommons.org/ns#"
   xmlns:rdf="http://www.w3.org/1999/02/22-rdf-syntax-ns#"
   xmlns:svg="http://www.w3.org/2000/svg"
   xmlns="http://www.w3.org/2000/svg"
   width="80.511002"
   height="40"
   viewBox="0 0 80.511006 40.000001"
   id="svg5336"
   version="1.1">
  <defs
     id="defs5338" />
  <metadata
     id="metadata5341">
    <rdf:RDF>
      <cc:Work
         rdf:about="">
        <dc:format>image/svg+xml</dc:format>
        <dc:type
           rdf:resource="http://purl.org/dc/dcmitype/StillImage" />
        <dc:title></dc:title>
      </cc:Work>
    </rdf:RDF>
  </metadata>
  <g
     id="layer1"
     transform="matrix(0.57178579,0,0,0.57178579,0.38956591,-562.33033)">
    <g
       id="g5239"
       transform="matrix(0.41335238,0,0,-0.41090143,-358.11345,1043.9977)"
       style="stroke:none">
      <path
         id="path618"
         style="fill:none;stroke:none;stroke-width:3.03305984;stroke-linecap:butt;stroke-linejoin:miter;stroke-miterlimit:10;stroke-dasharray:none;stroke-opacity:1"
         d="m 1209.21,-25.005788 -340.64552,0 0,170.250728 340.64552,0 0,-170.250728 z" />
      <g
         transform="matrix(2.365594,0,0,2.3700577,1031.2502,86.016721)"
         id="g620"
         style="stroke:none">
        <path
           id="path622"
           style="fill:#00bfbc;fill-opacity:1;fill-rule:nonzero;stroke:none"
           d="m 0,0 c -0.284,-0.504 -0.998,-0.811 -1.984,-0.811 l -8.559,0 c -0.234,0 -0.433,-0.197 -0.433,-0.429 l 0,-8.561 c 0,-1.172 -0.951,-2.123 -2.12,-2.123 l -4.923,0 c -1.169,0 -2.119,0.951 -2.119,2.123 l -0.004,8.561 c 0,0.154 -0.078,0.254 -0.126,0.301 -0.047,0.05 -0.149,0.128 -0.301,0.128 l -8.565,0 c -1.17,0 -2.12,0.952 -2.12,2.122 l 0,4.822 0,1.326 c 0,0.896 0.751,0.896 2.12,0.896 l 8.565,0 c 0.229,0 0.431,0.196 0.431,0.43 l -0.004,8.561 c 0,0.295 0.061,0.574 0.168,0.828 -1.839,0.396 -3.746,0.611 -5.703,0.611 -14.878,0 -26.939,-12.06 -26.939,-26.939 0,-14.877 12.061,-26.938 26.939,-26.938 14.877,0 26.938,12.061 26.938,26.938 C 1.261,-5.311 0.817,-2.572 0,0" />
      </g>
      <g
         transform="matrix(2.365594,0,0,2.3700577,945.06093,51.169289)"
         id="g624"
         style="stroke:none">
        <path
           id="path626"
           style="fill:#ffffff;fill-opacity:1;fill-rule:nonzero;stroke:none"
           d="m 0,0 c 0.73,0 1.412,-0.146 2.043,-0.437 0.631,-0.292 1.187,-0.692 1.67,-1.2 0.482,-0.508 0.861,-1.099 1.133,-1.773 0.273,-0.674 0.41,-1.402 0.41,-2.186 l 0,-5.621 -2.08,0 0,5.621 c 0,0.467 -0.082,0.903 -0.244,1.311 -0.164,0.408 -0.391,0.765 -0.678,1.074 -0.289,0.309 -0.627,0.551 -1.018,0.725 -0.388,0.175 -0.8,0.261 -1.236,0.261 -0.437,0 -0.846,-0.086 -1.227,-0.261 C -1.609,-2.66 -1.943,-2.902 -2.232,-3.211 -2.52,-3.52 -2.746,-3.877 -2.91,-4.285 -3.072,-4.693 -3.154,-5.129 -3.154,-5.596 l 0,-5.621 -2.08,0 0,15.713 2.08,0 0,-5.646 c 0.435,0.367 0.922,0.65 1.459,0.849 C -1.158,-0.1 -0.594,0 0,0" />
      </g>
      <g
         transform="matrix(2.365594,0,0,2.3700577,966.06007,43.471342)"
         id="g628"
         style="stroke:none">
        <path
           id="path630"
           style="fill:#ffffff;fill-opacity:1;fill-rule:nonzero;stroke:none"
           d="m 0,0 c -0.623,-0.666 -0.936,-1.465 -0.936,-2.398 0,-0.516 0.11,-1.008 0.329,-1.473 0.185,0.199 0.47,0.504 0.851,0.912 0.381,0.406 0.787,0.84 1.215,1.299 0.428,0.457 0.842,0.894 1.238,1.31 C 3.094,0.066 3.402,0.391 3.619,0.625 3.027,0.941 2.4,1.049 1.74,0.949 1.078,0.85 0.498,0.533 0,0 M 5.209,-4.021 6.68,-5.596 5.957,-6.369 C 5.457,-6.902 4.889,-7.311 4.25,-7.594 3.611,-7.877 2.943,-8.018 2.242,-8.018 c -0.701,0 -1.371,0.141 -2.01,0.424 -0.638,0.283 -1.207,0.692 -1.705,1.225 -0.513,0.549 -0.896,1.17 -1.144,1.861 -0.25,0.69 -0.373,1.395 -0.373,2.11 0,0.716 0.123,1.416 0.373,2.099 0.248,0.682 0.631,1.299 1.144,1.848 0.514,0.549 1.094,0.961 1.741,1.236 0.646,0.276 1.304,0.412 1.974,0.412 0.67,0 1.328,-0.136 1.973,-0.412 C 4.861,2.51 5.441,2.098 5.957,1.549 L 6.68,0.775 0.863,-5.445 c 0.592,-0.317 1.219,-0.42 1.881,-0.313 0.662,0.11 1.242,0.43 1.74,0.963 l 0.725,0.774 z" />
      </g>
      <g
         transform="matrix(2.365594,0,0,2.3700577,1008.3358,51.109089)"
         id="g632"
         style="stroke:none">
        <path
           id="path634"
           style="fill:#ffffff;fill-opacity:1;fill-rule:nonzero;stroke:none"
           d="m 0,0 0,-10.092 c 0,-0.783 -0.137,-1.512 -0.41,-2.185 -0.272,-0.674 -0.647,-1.27 -1.121,-1.786 -0.475,-0.517 -1.028,-0.919 -1.658,-1.212 -0.631,-0.291 -1.313,-0.436 -2.045,-0.436 l -1.051,0 0,2.223 1.051,0 c 0.435,0 0.845,0.088 1.226,0.261 0.383,0.176 0.717,0.416 1.006,0.725 0.287,0.309 0.514,0.67 0.676,1.086 0.164,0.416 0.246,0.857 0.246,1.324 l 0,0.026 c -0.436,-0.368 -0.922,-0.651 -1.461,-0.85 -0.537,-0.199 -1.102,-0.299 -1.693,-0.299 -0.717,0 -1.393,0.145 -2.032,0.436 -0.638,0.293 -1.199,0.695 -1.681,1.213 -0.485,0.515 -0.862,1.115 -1.135,1.798 -0.272,0.682 -0.408,1.407 -0.408,2.172 l 0,5.596 2.08,0 0,-5.596 c 0,-0.466 0.08,-0.908 0.244,-1.324 0.164,-0.416 0.389,-0.777 0.678,-1.086 0.289,-0.308 0.627,-0.549 1.015,-0.724 0.391,-0.174 0.803,-0.262 1.239,-0.262 0.435,0 0.845,0.088 1.226,0.262 0.383,0.175 0.717,0.416 1.006,0.724 0.287,0.309 0.514,0.67 0.676,1.086 0.164,0.416 0.246,0.858 0.246,1.324 L -2.08,0 0,0 Z" />
      </g>
      <g
         transform="matrix(2.365594,0,0,2.3700577,1061.1321,51.280445)"
         id="g636"
         style="stroke:none">
        <path
           id="path638"
           style="fill:#000000;fill-opacity:1;fill-rule:nonzero;stroke:none"
           d="m 0,0 c 0.774,0 1.495,-0.143 2.162,-0.43 0.668,-0.291 1.256,-0.685 1.767,-1.189 0.511,-0.502 0.91,-1.084 1.198,-1.752 0.29,-0.67 0.434,-1.389 0.434,-2.162 l 0,-5.559 -2.2,0 0,5.559 c 0,0.461 -0.086,0.892 -0.259,1.299 -0.172,0.402 -0.413,0.755 -0.717,1.06 -0.305,0.303 -0.663,0.543 -1.074,0.717 -0.413,0.172 -0.85,0.26 -1.311,0.26 -0.461,0 -0.895,-0.088 -1.297,-0.26 -0.404,-0.174 -0.757,-0.414 -1.062,-0.717 -0.305,-0.305 -0.543,-0.658 -0.717,-1.06 -0.172,-0.407 -0.259,-0.838 -0.259,-1.299 l 0,-5.559 -2.198,0 0,5.559 c 0,0.461 -0.088,0.892 -0.26,1.299 -0.174,0.402 -0.412,0.755 -0.717,1.06 -0.305,0.303 -0.664,0.543 -1.076,0.717 -0.412,0.172 -0.848,0.26 -1.309,0.26 -0.46,0 -0.892,-0.088 -1.296,-0.26 -0.405,-0.174 -0.758,-0.414 -1.063,-0.717 -0.306,-0.305 -0.543,-0.658 -0.719,-1.06 -0.172,-0.407 -0.256,-0.838 -0.256,-1.299 l 0,-5.559 -2.201,0 0,5.559 c 0,0.773 0.143,1.492 0.432,2.162 0.288,0.668 0.685,1.25 1.186,1.752 0.503,0.504 1.091,0.898 1.767,1.189 0.675,0.287 1.393,0.43 2.15,0.43 0.922,0 1.768,-0.201 2.534,-0.604 0.765,-0.404 1.404,-0.953 1.915,-1.644 0.508,0.691 1.151,1.24 1.925,1.644 C -1.746,-0.201 -0.906,0 0,0" />
      </g>
      <g
         transform="matrix(2.365594,0,0,2.3700577,1083.6975,43.670426)"
         id="g640"
         style="stroke:none">
        <path
           id="path642"
           style="fill:#000000;fill-opacity:1;fill-rule:nonzero;stroke:none"
           d="m 0,0 c -0.661,-0.66 -0.989,-1.449 -0.989,-2.373 0,-0.51 0.116,-0.996 0.346,-1.459 0.198,0.199 0.497,0.498 0.903,0.902 0.402,0.403 0.83,0.832 1.285,1.287 0.453,0.454 0.889,0.885 1.309,1.295 C 3.273,0.066 3.598,0.387 3.83,0.619 3.205,0.932 2.541,1.039 1.842,0.939 1.14,0.838 0.527,0.529 0,0 M 5.51,-3.979 7.066,-5.535 6.301,-6.301 C 5.773,-6.826 5.172,-7.23 4.496,-7.51 3.822,-7.793 3.112,-7.934 2.371,-7.934 c -0.74,0 -1.448,0.141 -2.125,0.424 -0.675,0.28 -1.277,0.684 -1.803,1.209 -0.543,0.543 -0.947,1.158 -1.209,1.84 -0.265,0.684 -0.398,1.379 -0.398,2.088 0,0.709 0.133,1.402 0.398,2.076 0.262,0.676 0.666,1.283 1.209,1.83 0.543,0.543 1.157,0.949 1.842,1.223 0.682,0.271 1.377,0.406 2.086,0.406 0.709,0 1.406,-0.135 2.088,-0.406 C 5.143,2.482 5.756,2.076 6.301,1.533 L 7.066,0.766 0.914,-5.387 c 0.625,-0.314 1.289,-0.416 1.989,-0.308 0.701,0.105 1.314,0.424 1.841,0.951 l 0.766,0.765 z" />
      </g>
      <g
         transform="matrix(2.365594,0,0,2.3700577,1115.3745,30.20447)"
         id="g644"
         style="stroke:none">
        <path
           id="path646"
           style="fill:#000000;fill-opacity:1;fill-rule:nonzero;stroke:none"
           d="m 0,0 c 0.463,0 0.895,0.084 1.299,0.258 0.404,0.172 0.758,0.412 1.062,0.717 0.305,0.306 0.543,0.664 0.717,1.074 0.173,0.412 0.26,0.847 0.26,1.31 l 0,3.336 -3.338,0 C -0.459,6.695 -0.896,6.607 -1.308,6.436 -1.719,6.262 -2.078,6.021 -2.383,5.719 -2.688,5.414 -2.927,5.061 -3.1,4.658 -3.271,4.252 -3.357,3.82 -3.357,3.359 -3.357,2.896 -3.271,2.461 -3.1,2.049 -2.927,1.639 -2.688,1.281 -2.383,0.975 -2.078,0.67 -1.719,0.43 -1.308,0.258 -0.896,0.084 -0.459,0 0,0 m 5.536,13.342 0,-9.983 C 5.536,2.6 5.393,1.885 5.104,1.209 4.816,0.533 4.42,-0.059 3.918,-0.572 3.416,-1.082 2.827,-1.48 2.15,-1.768 1.476,-2.057 0.758,-2.199 0,-2.199 c -0.756,0 -1.471,0.142 -2.148,0.431 -0.676,0.288 -1.268,0.686 -1.778,1.196 -0.511,0.513 -0.91,1.105 -1.201,1.781 -0.287,0.676 -0.431,1.391 -0.431,2.15 0,0.774 0.144,1.493 0.431,2.162 0.291,0.668 0.69,1.25 1.201,1.752 0.51,0.504 1.102,0.899 1.778,1.19 0.677,0.287 1.392,0.43 2.148,0.43 l 3.338,0 0,4.449 2.198,0 z" />
      </g>
      <g
         transform="matrix(2.365594,0,0,2.3700577,1169.6306,48.669826)"
         id="g648"
         style="stroke:none">
        <path
           id="path650"
           style="fill:#000000;fill-opacity:1;fill-rule:nonzero;stroke:none"
           d="m 0,0 c 1.225,-1.859 0.491,-5.09 -2.181,-9.605 l -0.822,0.486 c 3.071,5.197 2.894,7.539 2.205,8.588 -0.917,1.398 -3.154,1.133 -3.175,1.129 L -4.099,1.549 C -3.982,1.564 -1.251,1.896 0,0" />
      </g>
      <g
         transform="matrix(2.365594,0,0,2.3700577,1131.7165,48.669826)"
         id="g652"
         style="stroke:none">
        <path
           id="path654"
           style="fill:#000000;fill-opacity:1;fill-rule:nonzero;stroke:none"
           d="m 0,0 c -1.223,-1.859 -0.49,-5.09 2.18,-9.605 l 0.826,0.486 C -0.068,-3.922 0.109,-1.58 0.798,-0.531 1.717,0.867 3.951,0.602 3.973,0.598 L 4.1,1.549 C 3.982,1.564 1.25,1.896 0,0" />
      </g>
      <g
         transform="matrix(2.365594,0,0,2.3700577,1165.5693,27.978037)"
         id="g656"
         style="stroke:none">
        <path
           id="path658"
           style="fill:#000000;fill-opacity:1;fill-rule:nonzero;stroke:none"
           d="m 0,0 c 0.113,-0.035 0.174,-0.156 0.133,-0.271 0,0 -2.553,-5.842 -6.221,-6.235 -2.35,-0.252 -6.331,5.815 -6.331,5.815 -0.069,0.099 -0.044,0.226 0.064,0.287 l 0.869,0.492 c 0.102,0.06 0.244,0.027 0.312,-0.07 0,0 3.231,-5.276 4.933,-5.094 2.267,0.242 4.985,5.242 4.985,5.242 0.051,0.109 0.188,0.17 0.301,0.135 L 0,0 Z" />
      </g>
      <g
         transform="matrix(2.365594,0,0,2.3700577,1165.5693,27.978037)"
         id="g660"
         style="stroke:none">
        <path
           id="path662"
           style="fill:#000000;fill-opacity:1;fill-rule:nonzero;stroke:none"
           d="m 0,0 c 0.113,-0.035 0.174,-0.156 0.133,-0.271 0,0 -2.553,-5.842 -6.221,-6.235 -2.35,-0.252 -6.331,5.815 -6.331,5.815 -0.069,0.099 -0.044,0.226 0.064,0.287 l 0.869,0.492 c 0.102,0.06 0.244,0.027 0.312,-0.07 0,0 3.231,-5.276 4.933,-5.094 2.267,0.242 4.985,5.242 4.985,5.242 0.051,0.109 0.188,0.17 0.301,0.135 L 0,0 Z" />
      </g>
      <g
         transform="matrix(2.365594,0,0,2.3700577,1149.3013,-4.6057529)"
         id="g664"
         style="stroke:none">
        <path
           id="path666"
           style="fill:#000000;fill-opacity:1;fill-rule:nonzero;stroke:none"
           d="m 0,0 c -6.73,-6.732 -9.28,2.801 -9.535,2.936 l 0.441,0.847 c 1.576,-0.816 2.067,-8.365 8.513,-3.021 1.027,0.851 1.304,2.547 0.73,5.15 L 1.086,6.117 C 1.746,3.115 1.229,1.229 0,0" />
      </g>
      <g
         transform="matrix(2.365594,0,0,2.3700577,1129.4247,3.564547)"
         id="g668"
         style="stroke:none">
        <path
           id="path670"
           style="fill:#000000;fill-opacity:1;fill-rule:nonzero;stroke:none"
           d="M 0,0 -1.29,-0.826 -1.806,-0.018 -0.518,0.807 0,0 Z" />
      </g>
      <g
         transform="matrix(2.365594,0,0,2.3700577,1123.0787,4.3606493)"
         id="g672"
         style="stroke:none">
        <path
           id="path674"
           style="fill:#000000;fill-opacity:1;fill-rule:nonzero;stroke:none"
           d="m 0,0 c -1.438,0 -2.608,1.17 -2.608,2.609 0,1.44 1.17,2.61 2.608,2.61 1.437,0 2.608,-1.17 2.608,-2.61 C 2.608,1.17 1.437,0 0,0 m 0,5.951 c -1.843,0 -3.343,-1.5 -3.343,-3.342 0,-1.841 1.5,-3.339 3.343,-3.339 1.843,0 3.34,1.498 3.34,3.339 0,1.842 -1.497,3.342 -3.34,3.342" />
      </g>
      <g
         transform="matrix(2.365594,0,0,2.3700577,1123.0787,6.1244463)"
         id="g676"
         style="stroke:none">
        <path
           id="path678"
           style="fill:#000000;fill-opacity:1;fill-rule:nonzero;stroke:none"
           d="M 0,0 C -1.031,0 -1.866,0.836 -1.866,1.865 -1.866,2.895 -1.031,3.73 0,3.73 1.03,3.73 1.866,2.895 1.866,1.865 1.866,0.836 1.03,0 0,0 m 0,4.518 c -1.464,0 -2.654,-1.19 -2.654,-2.653 0,-1.463 1.19,-2.654 2.654,-2.654 1.461,0 2.653,1.191 2.653,2.654 0,1.463 -1.192,2.653 -2.653,2.653" />
      </g>
      <g
         transform="matrix(2.365594,0,0,2.3700577,1123.0787,7.1428601)"
         id="g680"
         style="stroke:none">
        <path
           id="path682"
           style="fill:#ffffff;fill-opacity:1;fill-rule:nonzero;stroke:none"
           d="m 0,0 c -0.79,0 -1.438,0.643 -1.438,1.436 0,0.793 0.648,1.437 1.438,1.437 0.792,0 1.437,-0.644 1.437,-1.437 C 1.437,0.643 0.792,0 0,0 m 0,3.813 c -1.309,0 -2.376,-1.067 -2.376,-2.377 0,-1.309 1.067,-2.375 2.376,-2.375 1.311,0 2.376,1.066 2.376,2.375 0,1.31 -1.065,2.377 -2.376,2.377" />
      </g>
      <g
         transform="matrix(2.365594,0,0,2.3700577,1119.6642,10.577548)"
         id="g684"
         style="stroke:none">
        <path
           id="path686"
           style="fill:#000000;fill-opacity:1;fill-rule:nonzero;stroke:none"
           d="M 0,0 C 0,-0.799 0.646,-1.443 1.443,-1.443 2.24,-1.443 2.886,-0.799 2.886,0 2.886,0.799 2.24,1.441 1.443,1.441 0.646,1.441 0,0.799 0,0" />
      </g>
      <g
         transform="matrix(2.365594,0,0,2.3700577,1149.4584,13.743708)"
         id="g688"
         style="stroke:none">
        <path
           id="path690"
           style="fill:#000000;fill-opacity:1;fill-rule:nonzero;stroke:none"
           d="m 0,0 c -0.424,0 -0.691,-0.338 -0.588,-0.752 0,0 0.397,-1.615 1.11,-1.615 0.714,0 1.109,1.615 1.109,1.615 C 1.734,-0.338 1.467,0 1.041,0 L 0,0 Z" />
      </g>
      <g
         transform="matrix(2.365594,0,0,2.3700577,1155.326,50.076929)"
         id="g692"
         style="stroke:none">
        <path
           id="path694"
           style="fill:#000000;fill-opacity:1;fill-rule:nonzero;stroke:none"
           d="m 0,0 c 0,-0.43 0.339,-0.693 0.752,-0.592 0,0 1.613,0.397 1.613,1.112 0,0.714 -1.613,1.111 -1.613,1.111 C 0.339,1.73 0,1.465 0,1.037 L 0,0 Z" />
      </g>
      <g
         transform="matrix(2.365594,0,0,2.3700577,1146.0487,50.234301)"
         id="g696"
         style="stroke:none">
        <path
           id="path698"
           style="fill:#000000;fill-opacity:1;fill-rule:nonzero;stroke:none"
           d="m 0,0 c 0,-0.428 -0.338,-0.691 -0.752,-0.592 0,0 -1.615,0.397 -1.615,1.11 0,0.716 1.615,1.111 1.615,1.111 C -0.338,1.73 0,1.465 0,1.037 L 0,0 Z" />
      </g>
      <g
         transform="matrix(2.365594,0,0,2.3700577,1149.3013,-4.6057529)"
         id="g700"
         style="stroke:none">
        <path
           id="path702"
           style="fill:#000000;fill-opacity:1;fill-rule:nonzero;stroke:none"
           d="m 0,0 c -3.699,-3.697 -6.134,-2.486 -7.621,-0.623 l 0.958,0.586 c 1.126,-1.32 2.858,-1.873 6.082,0.799 0.728,0.603 1.079,1.631 1.018,3.109 L 1.336,4.549 C 1.527,2.434 1,1 0,0" />
      </g>
    </g>
  </g>
</svg>
